<svg width="41" height="40" viewBox="0 0 41 40" fill="none" xmlns="http://www.w3.org/2000/svg">
<circle cx="20.002" cy="20" r="20" fill="black"/>
<path d="M27.5612 12.1452C27.6304 12.2145 27.6778 12.3026 27.6973 12.3987C27.7169 12.4947 27.7078 12.5943 27.6712 12.6852L21.8522 27.2322C21.8009 27.3603 21.7153 27.4718 21.6047 27.5543C21.4942 27.6369 21.363 27.6874 21.2256 27.7002C21.0882 27.713 20.9499 27.6877 20.826 27.627C20.7021 27.5663 20.5973 27.4726 20.5232 27.3562L17.3452 22.3612L12.3502 19.1832C12.2335 19.1092 12.1396 19.0043 12.0787 18.8803C12.0178 18.7563 11.9924 18.6178 12.0052 18.4802C12.018 18.3426 12.0686 18.2113 12.1514 18.1006C12.2341 17.99 12.3459 17.9043 12.4742 17.8532L27.0212 12.0362C27.1121 11.9996 27.2117 11.9905 27.3077 12.0101C27.4037 12.0296 27.4919 12.0769 27.5612 12.1462V12.1452ZM18.3432 22.0692L21.1042 26.4072L25.8372 14.5752L18.3432 22.0692ZM25.1302 13.8682L13.2982 18.6012L17.6372 21.3612L25.1312 13.8682H25.1302Z" fill="white"/>
</svg>
