<svg width="366" height="60" viewBox="0 0 366 60" fill="none" xmlns="http://www.w3.org/2000/svg">
<path d="M47.8203 7.161C45.3383 5.56 43.7673 6.248 43.0043 6.869C42.1493 6.293 41.2913 5.81 40.4403 5.471C38.0983 4.537 34.2913 4 30.0003 4C25.7073 4 21.9023 4.537 19.5593 5.472C18.7083 5.811 17.8483 6.295 16.9933 6.871C16.2283 6.251 14.6603 5.567 12.1803 7.166C6.80131 10.63 -4.7217 9.257 2.0993 24.189C3.1953 26.586 4.0393 28.28 4.7803 29.222C4.7123 37.882 7.5653 49.22 13.2303 52.902C19.9733 57.284 25.2143 60 30.5003 60C35.7843 60 41.0263 57.284 47.7683 52.901C53.5143 49.169 55.6233 37.627 55.3073 29.104C56.0263 28.143 56.8483 26.489 57.9013 24.184C64.7213 9.252 53.1993 10.625 47.8203 7.161V7.161ZM46.6783 51.225C40.2423 55.407 35.2913 58 30.5003 58C25.7083 58 20.7563 55.407 14.3203 51.225C9.5233 48.107 6.8803 37.757 6.7993 29.751C7.6903 28.958 8.65031 26.758 10.0123 23.006C11.1213 19.948 11.0823 17.644 11.3613 15.575C13.9193 11.902 17.2573 8.544 20.3013 7.329C22.3843 6.497 26.0113 6 30.0003 6C33.9893 6 37.6143 6.497 39.7003 7.329C42.7453 8.544 46.0853 11.904 48.6413 15.579C48.9183 17.645 48.8813 19.948 49.9893 23.001C51.4423 27.001 52.4363 29.237 53.3783 29.882C53.5743 37.976 51.4003 48.157 46.6783 51.225" fill="black"/>
<path d="M22.2493 30.731C22.2493 27.14 19.3333 24.219 15.7493 24.219C12.1653 24.219 9.2493 27.14 9.2493 30.731C9.2493 34.323 12.1653 37.245 15.7493 37.245C19.3333 37.245 22.2493 34.323 22.2493 30.731V30.731ZM11.6793 34.427C12.4315 34.9569 13.3292 35.2413 14.2493 35.241C16.7343 35.241 18.7493 33.223 18.7493 30.731C18.7504 29.5364 18.2769 28.3902 17.433 27.5447C16.5891 26.6991 15.4439 26.2233 14.2493 26.222C13.2913 26.222 12.4083 26.527 11.6783 27.038C12.1913 26.4662 12.8189 26.0088 13.5203 25.6954C14.2216 25.382 14.9811 25.2197 15.7493 25.219C18.7813 25.219 21.2493 27.692 21.2493 30.731C21.2493 33.771 18.7813 36.245 15.7493 36.245C14.9813 36.2443 14.2221 36.0821 13.5209 35.7689C12.8198 35.4557 12.1923 34.9985 11.6793 34.427" fill="black"/>
<path d="M44.2503 24.219C40.6663 24.219 37.7503 27.14 37.7503 30.731C37.7503 34.323 40.6663 37.245 44.2503 37.245C47.8343 37.245 50.7503 34.323 50.7503 30.731C50.7503 27.141 47.8343 24.219 44.2503 24.219V24.219ZM44.2503 36.245C41.2193 36.245 38.7503 33.771 38.7503 30.731C38.7503 27.692 41.2193 25.219 44.2503 25.219C45.8653 25.219 47.3143 25.924 48.3223 27.038C47.5696 26.5073 46.6713 26.2223 45.7503 26.222C44.5557 26.2233 43.4105 26.6991 42.5666 27.5447C41.7227 28.3902 41.2492 29.5364 41.2503 30.731C41.2496 31.3226 41.3655 31.9085 41.5913 32.4554C41.8171 33.0022 42.1484 33.4992 42.5663 33.918C42.9841 34.3368 43.4804 34.6692 44.0267 34.8962C44.573 35.1232 45.1587 35.2403 45.7503 35.241C46.7073 35.241 47.5923 34.937 48.3203 34.427C47.8074 34.9986 47.18 35.4559 46.4788 35.7691C45.7776 36.0823 45.0183 36.2445 44.2503 36.245" fill="black"/>
<path d="M39.0553 34.777C36.9123 32.546 33.6123 31.266 29.9973 31.266C26.3853 31.266 23.0873 32.545 20.9503 34.778L13.8043 42.257C11.5983 44.566 11.5983 48.321 13.8043 50.632C14.8783 51.755 16.3103 52.374 17.8353 52.374C19.0799 52.3725 20.2874 51.9499 21.2613 51.175L23.9783 54.02C25.4063 55.507 27.6013 56.359 30.0013 56.359C32.4003 56.359 34.5933 55.506 36.0173 54.019L38.7383 51.173C39.7116 51.9493 40.9193 52.3727 42.1643 52.374C43.6893 52.374 45.1213 51.755 46.1973 50.631C48.4003 48.321 48.4003 44.566 46.1973 42.257L39.0553 34.777V34.777ZM35.2953 53.327C34.0613 54.618 32.1293 55.358 30.0023 55.358C27.8723 55.358 25.9393 54.618 24.7013 53.328L21.9983 50.497L24.6643 47.708L25.7223 46.603C25.2463 47.993 25.0763 49.14 25.2273 50.016C25.7003 52.777 27.9653 54.012 30.0003 54.012C32.0363 54.012 34.3013 52.777 34.7743 50.017C34.9243 49.139 34.7543 47.992 34.2783 46.599L38.0033 50.495L35.2953 53.327ZM45.4733 49.94C45.0486 50.392 44.536 50.7523 43.967 50.9989C43.3979 51.2455 42.7845 51.3732 42.1643 51.374C41.0273 51.374 39.9613 50.933 39.1073 50.157L39.0543 50.108C38.9896 50.0493 38.9225 49.9933 38.8533 49.94L32.5073 43.301L31.7083 42.464C31.2843 42.022 30.6633 41.768 30.0003 41.768C29.3373 41.768 28.7163 42.022 28.2943 42.463L27.4933 43.301L21.0743 50C21.0295 50.0352 20.9858 50.0719 20.9433 50.11L20.8933 50.157C20.0403 50.932 18.9743 51.374 17.8353 51.374C16.5853 51.374 15.4103 50.864 14.5273 49.94C12.6853 48.011 12.6853 44.875 14.5273 42.947L21.6733 35.469C23.6213 33.434 26.6563 32.266 29.9973 32.266C33.3403 32.266 36.3793 33.434 38.3323 35.468L45.4733 42.947C47.3143 44.875 47.3143 48.013 45.4733 49.94" fill="black"/>
<path d="M30.0003 32.511C26.7433 32.511 24.1023 33.019 24.1023 35.654C24.1023 37.748 28.7943 39.605 30.0003 39.605C31.2043 39.605 35.8993 37.748 35.8993 35.654C35.8983 33.019 33.2583 32.511 30.0003 32.511Z" fill="black"/>
<path d="M23.3133 39.001L22.3133 37.999L21.3133 39.003L22.3133 40.005L23.3133 39.001Z" fill="black"/>
<path d="M19.9323 42.7591L18.9323 41.7591L19.9333 40.7581L20.9333 41.7581L19.9323 42.7591Z" fill="black"/>
<path d="M22.0633 42.761L23.0633 43.763L24.0633 42.759L23.0633 41.757L22.0633 42.761Z" fill="black"/>
<path d="M36.6863 39.001L37.6863 40.005L38.6863 39.003L37.6863 37.999L36.6863 39.001Z" fill="black"/>
<path d="M40.0673 42.758L39.0673 41.756L40.0673 40.757L41.0673 41.76L40.0673 42.758Z" fill="black"/>
<path d="M35.9363 42.759L36.9363 43.763L37.9363 42.761L36.9363 41.757L35.9363 42.759Z" fill="black"/>
<path d="M355.06 2.788C352.931 1.503 351.551 1.97 350.832 2.47C350.04 1.965 349.242 1.54 348.454 1.245C346.34 0.454 342.911 0 339.046 0C335.181 0 331.751 0.454 329.638 1.245C328.849 1.54 328.051 1.965 327.259 2.47C326.538 1.972 325.158 1.51 323.035 2.792C318.204 5.713 307.851 4.556 313.979 17.141C314.917 19.064 315.646 20.435 316.289 21.249C316.231 26.097 317.336 31.959 319.569 36.296C318.788 37.556 317.617 40.044 317.714 43.481C312.305 42.176 308 35.808 308 35.808C308 43.762 314.191 47.368 318.358 47.407C318.786 48.8405 319.373 50.2214 320.108 51.524C320.961 53.049 323.557 54.109 325.767 54.627C326.23 56.297 326.815 57.441 327.539 58.148C328.946 59.519 331.641 60 333.834 60C333.968 60 334.101 59.999 334.23 59.996C336.232 59.941 337.925 59.502 339.047 58.764C340.169 59.502 341.861 59.942 343.861 59.996C346.115 60.048 349.058 59.602 350.553 58.147C351.267 57.451 351.849 56.299 352.313 54.628C354.525 54.11 357.129 53.052 357.985 51.523C361.874 44.57 360.128 39.301 358.913 36.976C361.228 32.525 362.094 26.196 361.878 21.149C362.502 20.324 363.212 18.988 364.113 17.136C370.243 4.55 359.89 5.709 355.06 2.788ZM321.867 50.603C318.652 44.854 319.686 40.541 320.748 38.283C321.624 39.554 322.628 40.598 323.758 41.331C323.886 41.599 324.109 42.02 324.429 42.527C324.572 46.742 324.851 50.016 325.294 52.494C323.491 51.946 322.188 51.176 321.867 50.603ZM325.176 38.795C324.79 38.4174 324.483 37.9666 324.274 37.4688C324.064 36.9711 323.956 36.4365 323.956 35.8965C323.956 35.3565 324.064 34.8219 324.274 34.3242C324.483 33.8264 324.79 33.3756 325.176 32.998L331.597 26.695C332.339 25.966 333.267 25.381 334.31 24.937C333.96 25.311 333.747 25.787 333.747 26.425C333.747 28.191 337.964 29.756 339.047 29.756C340.128 29.756 344.347 28.191 344.347 26.425C344.347 25.786 344.133 25.31 343.784 24.936C344.829 25.38 345.758 25.966 346.503 26.694L352.919 32.998C353.305 33.3754 353.612 33.8261 353.821 34.3238C354.031 34.8214 354.139 35.3559 354.139 35.8958C354.139 36.4357 354.031 36.9702 353.822 37.4679C353.613 37.9656 353.306 38.4165 352.92 38.794C352.135 39.5631 351.078 39.9915 349.979 39.986C348.983 39.9846 348.021 39.6278 347.265 38.98L347.211 38.932C347.154 38.8841 347.095 38.8381 347.035 38.794L341.317 33.183L340.614 32.493C340.225 32.111 339.655 31.891 339.049 31.891C338.444 31.891 337.873 32.111 337.486 32.492L336.581 33.38L331.004 38.84C330.963 38.87 330.922 38.902 330.883 38.936L330.841 38.973C330.085 39.6258 329.12 39.9856 328.121 39.987C327.021 39.9922 325.963 39.564 325.176 38.795V38.795ZM334.707 38.92C335.139 41.279 337.197 42.336 339.047 42.336C340.896 42.336 342.954 41.279 343.385 38.92C343.515 38.216 343.388 37.315 343.021 36.233L345.545 38.712L346.154 39.31L343.772 41.649C342.67 42.728 340.949 43.347 339.047 43.347C337.145 43.347 335.42 42.728 334.317 41.65L331.937 39.312L335.071 36.238C334.703 37.315 334.578 38.217 334.707 38.92V38.92ZM336.392 35.588H338.23L339.046 40.344L339.862 35.588H341.7C342.29 36.942 342.534 38.025 342.401 38.751C342.07 40.56 340.477 41.368 339.047 41.368C337.614 41.368 336.023 40.559 335.692 38.751C335.559 38.024 335.802 36.942 336.392 35.588ZM338.299 56.852C337.662 57.546 336.081 58.009 334.175 58.062C331.942 58.12 329.792 57.597 328.958 56.783C327.72 55.576 326.912 51.655 326.547 45.13C328.428 46.98 331.347 48.892 335.725 49.556C335.353 49.044 335.109 48.247 335.109 47.341C335.109 47.162 335.126 46.989 335.145 46.82C335.457 46.904 335.77 46.994 336.08 47.06C336.073 47.153 336.064 47.246 336.064 47.341C336.064 48.615 336.604 49.613 337.294 49.739C337.754 49.773 338.222 49.8 338.706 49.809C338.676 50.5143 338.659 51.2201 338.655 51.926C338.666 53.36 338.713 54.793 338.869 56.228L338.299 56.852V56.852ZM349.134 56.782C348.3 57.596 346.148 58.115 343.918 58.061C342.011 58.008 340.431 57.545 339.796 56.851L339.22 56.224C339.375 54.79 339.419 53.357 339.427 51.923C339.422 51.2167 339.404 50.5106 339.373 49.805C345.44 49.722 349.268 47.408 351.548 45.166C351.185 51.666 350.376 55.573 349.134 56.782V56.782ZM356.228 50.602C355.906 51.176 354.597 51.95 352.787 52.497C353.238 50.007 353.523 46.726 353.665 42.55C353.76 42.401 353.848 42.257 353.924 42.124C354.301 41.899 354.667 41.686 355.055 41.45C356.034 40.854 356.892 40.018 357.645 39.014C358.528 41.365 359.126 45.417 356.228 50.602V50.602ZM353.987 39.813C348.217 43.33 343.781 45.51 339.495 45.51C335.567 45.51 331.502 43.665 326.412 40.655C326.96 40.8484 327.537 40.9498 328.118 40.955C329.24 40.955 330.298 40.593 331.181 39.95L333.605 42.329C334.896 43.591 336.879 44.315 339.047 44.315C341.213 44.315 343.195 43.59 344.484 42.328L346.909 39.948C347.798 40.6012 348.873 40.954 349.976 40.955C351.341 40.9619 352.654 40.43 353.629 39.475C354.105 39.0091 354.484 38.4526 354.743 37.8384C355.001 37.2241 355.134 36.5644 355.134 35.898C355.134 35.2316 355.001 34.5719 354.743 33.9576C354.484 33.3434 354.105 32.7869 353.629 32.321L348.266 27.051C349.308 27.8054 350.563 28.2098 351.85 28.206C355.098 28.206 357.741 25.716 357.741 22.655C357.741 19.593 355.098 17.103 351.85 17.103C348.602 17.103 345.958 19.593 345.958 22.655C345.958 23.868 346.378 24.988 347.081 25.902C345.144 24.087 342.232 23.042 339.043 23.042C335.846 23.042 332.926 24.093 330.995 25.919C331.728 24.9886 332.128 23.8395 332.132 22.655C332.132 19.593 329.488 17.103 326.24 17.103C322.992 17.103 320.35 19.593 320.35 22.655C320.35 25.716 322.992 28.206 326.24 28.206C327.535 28.2092 328.797 27.7998 329.844 27.037L324.463 32.32C323.518 33.2459 322.978 34.509 322.963 35.8322C322.948 37.1555 323.458 38.4307 324.382 39.378C320.477 36.33 318.343 28.12 318.298 21.734C319.071 21.001 319.912 19.176 321.086 16.143C322.041 13.675 322.05 11.789 322.269 10.103C324.566 6.969 327.597 4.083 330.358 3.05C332.223 2.353 335.471 1.936 339.046 1.936C342.621 1.936 345.867 2.353 347.733 3.05C350.496 4.083 353.528 6.971 355.826 10.107C356.044 11.792 356.055 13.675 357.007 16.139C358.261 19.377 359.133 21.227 359.95 21.852C360.149 28.645 358.216 37.235 353.987 39.813V39.813ZM353.198 26.455C353.98 26.455 354.705 26.236 355.323 25.875C354.382 26.7568 353.139 27.2442 351.85 27.237C349.153 27.237 346.959 25.18 346.959 22.654C346.959 20.127 349.152 18.07 351.85 18.07C353.208 18.07 354.438 18.593 355.325 19.433C354.68 19.0534 353.946 18.8528 353.198 18.852C350.964 18.852 349.154 20.555 349.154 22.654C349.154 24.754 350.964 26.455 353.198 26.455V26.455ZM324.895 18.853C324.112 18.853 323.388 19.072 322.769 19.434C323.709 18.5515 324.952 18.0636 326.242 18.071C328.939 18.071 331.134 20.128 331.134 22.655C331.134 25.181 328.94 27.238 326.242 27.238C324.953 27.2449 323.71 26.7575 322.769 25.876C323.388 26.237 324.112 26.456 324.895 26.456C327.128 26.456 328.937 24.755 328.937 22.655C328.937 20.556 327.128 18.853 324.895 18.853" fill="black"/>
<path d="M333.039 29.623L332.14 28.78L331.242 29.625L332.14 30.468L333.039 29.623Z" fill="black"/>
<path d="M330.899 31.9459L330.001 31.101L329.103 31.9459L330.001 32.791L330.899 31.9459Z" fill="black"/>
<path d="M331.916 32.791L332.813 33.636L333.712 32.791L332.813 31.946L331.916 32.791Z" fill="black"/>
<path d="M348.989 31.9459L348.091 31.101L347.192 31.9459L348.091 32.791L348.989 31.9459Z" fill="black"/>
<path d="M346.85 29.625L345.952 28.78L345.054 29.623L345.952 30.468L346.85 29.625Z" fill="black"/>
<path d="M346.177 32.791L345.278 31.946L344.38 32.791L345.278 33.636L346.177 32.791Z" fill="black"/>
<path fill-rule="evenodd" clip-rule="evenodd" d="M110.477 18.2598C110.095 18.7268 110 19.0628 110 19.1468C110 19.3536 109.936 19.5553 109.817 19.7241C109.697 19.893 109.529 20.0208 109.334 20.0898C108.26 20.4676 107.184 20.8396 106.107 21.2058C106.175 21.5628 106.28 21.9928 106.437 22.4148C106.833 23.4758 107.354 23.9998 108 23.9998C109.334 23.9998 110.567 23.9108 111.445 23.5408C111.865 23.3638 112.154 23.1428 112.342 22.8788C112.526 22.6218 112.667 22.2508 112.667 21.6748H114.667C114.667 22.5998 114.432 23.3938 113.97 24.0408C113.788 24.2949 113.574 24.5242 113.333 24.7228C113.326 26.2408 113.252 27.5128 113.19 28.5688L113.17 28.9068C113.101 30.1068 113.069 30.9378 113.158 31.5928C113.24 32.1978 113.418 32.5848 113.748 32.9198C114.113 33.2898 114.735 33.6678 115.853 34.0898C116.043 34.1615 116.207 34.2894 116.322 34.4564C116.438 34.6234 116.5 34.8217 116.5 35.0248C116.5 36.2048 116.632 37.1728 116.75 38.0458C116.809 38.4728 116.864 38.8778 116.899 39.2738C116.944 39.7858 116.973 40.4438 116.721 40.9908C116.571 41.3226 116.318 41.5962 115.998 41.7698C115.674 41.9458 115.324 41.9998 115 41.9998C114.954 41.9998 114.8 42.0308 114.556 42.2358C114.305 42.4551 114.092 42.7147 113.926 43.0038L113.925 43.0068C114.354 43.0118 114.751 43.0208 115.115 43.0288L115.852 43.0428C116.634 43.0558 117.158 43.0448 117.526 42.9848C117.702 42.9558 117.803 42.9218 117.859 42.8948C117.878 42.8861 117.896 42.875 117.912 42.8618C117.914 42.8588 118 42.7488 118 42.2738V36.0248C118 35.8146 118.066 35.6098 118.189 35.4394C118.313 35.2691 118.486 35.1418 118.686 35.0758L127.019 32.3148C127.241 32.2411 127.482 32.2477 127.7 32.3334C127.918 32.4191 128.098 32.5785 128.211 32.7838C128.538 33.3818 128.823 33.9298 129.073 34.4098C129.212 34.6778 129.34 34.9238 129.458 35.1458C129.801 35.7898 130.088 36.2808 130.414 36.7148C131.044 37.5498 131.895 38.2698 133.816 39.3268C133.935 39.3925 134.039 39.4819 134.123 39.5893C134.206 39.6968 134.267 39.8201 134.301 39.9518C134.451 40.5288 134.478 41.0858 134.227 41.5998C134.036 41.9898 133.7 42.2668 133.551 42.3898L133.503 42.4298C133.353 42.5598 133.261 42.6568 133.183 42.8228C133.157 42.8803 133.135 42.9394 133.117 42.9998H135.333V38.6958L132.092 31.6458L133.909 30.8108L135.955 35.2608C136.083 34.3008 136.168 33.2108 136.125 32.1308C136.066 30.6128 135.76 29.2398 135.089 28.2698C134.463 27.3648 133.45 26.7058 131.667 26.7058C130.861 26.7058 130.067 26.7158 129.294 26.7258C128.124 26.7408 127.004 26.7548 125.975 26.7318C124.242 26.6938 122.613 26.5508 121.122 26.1018C119.611 25.6468 118.253 24.8818 117.06 23.6278C115.877 22.3838 114.895 20.6998 114.063 18.4598C113.709 17.5078 113.288 17.1818 112.998 17.0698C112.694 16.9518 112.291 16.9748 111.798 17.2048C111.308 17.4348 110.829 17.8288 110.478 18.2588L110.477 18.2598ZM137.333 38.6118V43.9998C137.333 44.265 137.227 44.5194 137.04 44.7069C136.852 44.8945 136.598 44.9998 136.333 44.9998H132C131.735 44.9998 131.48 44.8945 131.293 44.7069C131.105 44.5194 131 44.265 131 43.9998C131 43.1528 131.128 42.5028 131.37 41.9818C131.618 41.4458 131.95 41.1298 132.193 40.9188L132.339 40.7908C130.621 39.8018 129.612 38.9738 128.817 37.9178C128.393 37.3558 128.049 36.7538 127.693 36.0868C127.553 35.8235 127.415 35.5595 127.278 35.2948C127.144 35.0368 127.004 34.7668 126.851 34.4768L120 36.7468V42.2738C120 42.9118 119.899 43.5738 119.479 44.1038C119.045 44.6518 118.426 44.8638 117.849 44.9588C117.279 45.0518 116.585 45.0548 115.82 45.0428L115.044 45.0278C114.363 45.0107 113.681 45.0014 113 44.9998C112.59 44.9998 112.155 44.8228 111.892 44.4048C111.673 44.0578 111.663 43.6848 111.683 43.4478C111.724 42.9578 111.943 42.4328 112.199 41.9958C112.481 41.507 112.844 41.0695 113.272 40.7018C113.685 40.3568 114.254 40.0248 114.925 40.0018V39.9978C114.932 39.8153 114.926 39.6325 114.907 39.4508C114.884 39.1978 114.841 38.8778 114.791 38.5048C114.689 37.7428 114.557 36.7638 114.514 35.7068C113.6 35.3148 112.871 34.8768 112.324 34.3238C111.624 33.6138 111.302 32.7918 111.176 31.8608C111.056 30.9808 111.107 29.9478 111.174 28.7928L111.194 28.4548C111.241 27.6388 111.294 26.7248 111.319 25.6818C110.232 25.9558 109.035 25.9998 108 25.9998C105.98 25.9998 105 24.2878 104.563 23.1128C104.36 22.556 104.208 21.982 104.109 21.3978C104.067 21.1571 104.034 20.9149 104.009 20.6718L104.005 20.6238L104.003 20.6098V20.6028L105 20.5288L104.677 19.5818L105.131 19.4268C106.13 19.0846 107.129 18.7406 108.127 18.3948C108.294 17.8798 108.603 17.3918 108.929 16.9938C109.442 16.3668 110.15 15.7688 110.951 15.3938C111.751 15.0208 112.743 14.8268 113.721 15.2058C114.712 15.5898 115.458 16.4718 115.937 17.7638C116.707 19.8388 117.568 21.2608 118.509 22.2508C119.439 23.2288 120.485 23.8228 121.699 24.1878C122.932 24.5588 124.348 24.6968 126.019 24.7338C127.027 24.7558 128.074 24.7418 129.206 24.7268C129.982 24.7168 130.797 24.7068 131.666 24.7068C134.05 24.7068 135.704 25.6428 136.734 27.1328C137.719 28.5578 138.059 30.3768 138.124 32.0528C138.191 33.7478 137.981 35.4228 137.76 36.6578C137.643 37.3147 137.5 37.9669 137.333 38.6128V38.6118ZM105 20.5278L104.677 19.5808C104.467 19.6524 104.287 19.7915 104.165 19.9762C104.043 20.161 103.986 20.381 104.003 20.6018L105 20.5278Z" fill="black"/>
<path fill-rule="evenodd" clip-rule="evenodd" d="M136.707 13.2928C136.894 13.4803 137 13.7346 137 13.9998C137 14.265 136.894 14.5193 136.707 14.7068L121.207 30.2068C121.019 30.3943 120.765 30.4997 120.5 30.4998H113C112.735 30.4998 112.48 30.3944 112.293 30.2069C112.105 30.0194 112 29.765 112 29.4998C112 29.2346 112.105 28.9802 112.293 28.7927C112.48 28.6051 112.735 28.4998 113 28.4998H120.086L135.293 13.2928C135.48 13.1053 135.735 13 136 13C136.265 13 136.519 13.1053 136.707 13.2928V13.2928Z" fill="black"/>
<path fill-rule="evenodd" clip-rule="evenodd" d="M119.5 35.4998V28.9998H121.5V35.4998H119.5Z" fill="black"/>
<path fill-rule="evenodd" clip-rule="evenodd" d="M184.297 25.1048L179.5 29.9028V36.6178C182.232 36.2528 184.567 35.6858 187.5 33.9888C189.638 37.9078 191.429 39.0338 192.348 39.6128C192.718 39.8458 192.948 39.9898 193 40.1918C193.12 40.6518 193.246 40.9888 193.344 41.2518C193.645 42.0548 193.689 42.1718 192.5 42.9888H196V38.4658C196 36.4888 193 31.2168 193 31.2168L197.5 36.9878C197.905 37.2408 198.452 36.7548 198 35.9878C197.811 35.4838 197.605 34.8238 197.371 34.0758C196.257 30.5088 194.524 24.9598 191.119 24.9598C190.626 24.9598 189.917 24.9858 189.083 25.0148C187.696 25.0648 185.962 25.1268 184.297 25.1048V25.1048ZM177.5 36.8518V30.4878H169.586C170.393 32.2408 171.359 33.5098 172.108 34.4938C172.248 34.6768 172.378 34.8488 172.5 35.0138C173 35.6878 174.5 40.1908 172 42.2618C175.107 42.2618 175.83 43.3228 175.98 43.2478C176.048 43.2138 176 42.9508 176 42.2618V37.0128L176.933 36.9128L177.5 36.8518V36.8518ZM168.822 28.4878H178.086L181.603 24.9708C181.569 24.9675 181.534 24.9642 181.5 24.9608C177.424 24.5258 174.807 22.9658 173 18.0998C171.333 13.6118 166 15.4878 166 19.1348C164.787 19.5648 162 20.5148 162 20.5148C162 20.5148 162.5 23.1628 163.5 24.4878C164.04 24.8818 165.836 24.9598 167 24.9598C167.411 24.9598 167.78 24.9518 168.112 24.9348C168.248 26.2698 168.5 27.4458 168.822 28.4878V28.4878Z" fill="black"/>
<path d="M171 42.9877C171 42.7225 171.105 42.4681 171.293 42.2806C171.48 42.093 171.735 41.9877 172 41.9877H175C175.265 41.9877 175.52 42.093 175.707 42.2806C175.895 42.4681 176 42.7225 176 42.9877C176 43.2529 175.895 43.5072 175.707 43.6948C175.52 43.8823 175.265 43.9877 175 43.9877H172C171.735 43.9877 171.48 43.8823 171.293 43.6948C171.105 43.5072 171 43.2529 171 42.9877Z" fill="black"/>
<path d="M192 42.9877C192 42.7225 192.105 42.4681 192.293 42.2806C192.48 42.093 192.735 41.9877 193 41.9877H195C195.265 41.9877 195.52 42.093 195.707 42.2806C195.895 42.4681 196 42.7225 196 42.9877C196 43.2529 195.895 43.5072 195.707 43.6948C195.52 43.8823 195.265 43.9877 195 43.9877H193C192.735 43.9877 192.48 43.8823 192.293 43.6948C192.105 43.5072 192 43.2529 192 42.9877Z" fill="black"/>
<path d="M173.974 17.2988C175.154 18.0228 175.483 21.7008 175 22.4878C174.517 23.2748 173.405 20.8718 172.225 20.1478C171.045 19.4238 170.48 18.1988 170.963 17.4118C171.446 16.6258 172.793 16.5748 173.973 17.2988H173.974Z" fill="black"/>
<path fill-rule="evenodd" clip-rule="evenodd" d="M194.707 14.6947C194.889 14.5061 194.99 14.2535 194.988 13.9913C194.985 13.7291 194.88 13.4783 194.695 13.2929C194.509 13.1075 194.259 13.0023 193.996 13C193.734 12.9978 193.482 13.0986 193.293 13.2807L181.586 24.9877H184.414L194.707 14.6947Z" fill="black"/>
<path d="M254.31 13.8619C255.558 13.2056 257.01 13 258 13H262.338C263.697 12.9999 265.031 13.2691 266.196 13.7787L271.545 16.1194C271.989 16.3138 272.356 16.5886 272.611 16.9171C272.866 17.2456 273 17.6166 273 17.9941V20.6562C273 21.5265 272.526 22.3611 271.682 22.9764C270.838 23.5918 269.694 23.9375 268.5 23.9375H267V41.5206C268.263 41.6628 269.529 42.0063 270.585 42.6472C272.115 43.5747 273 45.0031 273 46.9062C273 47.1963 272.842 47.4745 272.561 47.6796C272.279 47.8848 271.898 48 271.5 48H237.001C235.113 48.0002 233.272 47.5673 231.74 46.7627C230.208 45.958 229.062 44.8224 228.464 43.5165C227.865 42.2107 227.846 40.8007 228.407 39.4862C228.968 38.1716 230.083 37.0192 231.592 36.1919C231.91 36.0244 232.306 35.9546 232.694 35.9975C233.083 36.0404 233.432 36.1926 233.668 36.4214C233.904 36.6502 234.008 36.9374 233.957 37.2213C233.906 37.5051 233.704 37.7631 233.395 37.9397C232.388 38.4911 231.645 39.2595 231.271 40.136C230.896 41.0125 230.909 41.9526 231.308 42.8234C231.707 43.6942 232.471 44.4514 233.493 44.9879C234.515 45.5243 235.742 45.8128 237.001 45.8125C237.865 45.8125 238.411 45.6594 238.771 45.4844C239.127 45.3053 239.411 45.0608 239.596 44.7756C239.837 44.4162 239.975 44.0246 240.001 43.625V43.5266L240.013 43.2859C240.112 42.0197 240.373 40.763 240.793 39.5322C241.582 37.2353 243.181 34.2909 246.439 31.9131C251.97 27.8816 252 22.4741 252 20.6562V17.375C252 15.7059 252.99 14.5575 254.31 13.8619ZM254.772 23.7188C254.307 26.4663 252.885 30.3075 248.563 33.4619C245.821 35.4591 244.42 37.9834 243.706 40.0616C243.334 41.1512 243.101 42.2635 243.01 43.3844C243.006 43.4478 243.003 43.5112 243.001 43.5747V43.6972L242.989 43.8438C242.922 44.53 242.667 45.1996 242.239 45.8125H260.757C260.457 45.1125 259.848 44.3928 258.801 43.9925C258.087 43.7344 257.297 43.6082 256.5 43.625H253.5C253.103 43.625 252.721 43.5098 252.44 43.3046C252.159 43.0995 252 42.8213 252 42.5312C252 42.2412 252.159 41.963 252.44 41.7579C252.721 41.5527 253.103 41.4375 253.5 41.4375H256.5C257.028 41.4375 257.526 41.4681 258 41.525V35.9688C258 35.6787 258.158 35.4005 258.44 35.1954C258.721 34.9902 259.102 34.875 259.5 34.875C259.898 34.875 260.28 34.9902 260.561 35.1954C260.842 35.4005 261 35.6787 261 35.9688V42.4175C262.74 43.3319 263.541 44.6925 263.844 45.8125H269.844C269.619 45.095 269.169 44.6334 268.665 44.3294C267.894 43.8591 266.775 43.625 265.5 43.625C265.102 43.625 264.721 43.5098 264.44 43.3046C264.158 43.0995 264 42.8213 264 42.5312V22.8438C264 22.5537 264.158 22.2755 264.44 22.0704C264.721 21.8652 265.102 21.75 265.5 21.75H268.5C268.898 21.75 269.279 21.6348 269.561 21.4296C269.842 21.2245 270 20.9463 270 20.6562V17.9941L264.654 15.6534C263.954 15.3479 263.154 15.1869 262.338 15.1875H258C257.49 15.1875 256.692 15.3078 256.065 15.6381C255.51 15.9269 255 16.4191 255 17.375V20.6562C255 20.8466 255.09 21.155 255.318 21.3847C255.489 21.5597 255.789 21.75 256.5 21.75C257.211 21.75 257.511 21.5575 257.682 21.3847C257.882 21.1692 257.992 20.9163 258 20.6562C258 20.3662 258.158 20.088 258.44 19.8829C258.721 19.6777 259.102 19.5625 259.5 19.5625C259.898 19.5625 260.28 19.6777 260.561 19.8829C260.842 20.088 261 20.3662 261 20.6562C261 21.1966 260.79 21.9819 260.118 22.6622C259.389 23.3994 258.189 23.9375 256.5 23.9375C255.911 23.9416 255.325 23.8675 254.772 23.7188V23.7188Z" fill="black"/>
</svg>
